<svg width="529" height="529" xmlns="http://www.w3.org/2000/svg" xmlns:xlink="http://www.w3.org/1999/xlink" overflow="hidden"><defs><clipPath id="clip0"><rect x="0" y="0" width="529" height="529"/></clipPath></defs><g clip-path="url(#clip0)"><rect x="0" y="0" width="529" height="529" fill="#FFFFFF"/><path d="M94 483C83.5065 483 74.9998 473.496 74.9998 461.772L75.0002 285.728C75.0002 274.004 66.4935 264.5 56 264.5 66.4935 264.5 75.0002 254.996 75.0002 243.272L75.0002 67.2278C75.0002 55.504 83.5069 46 94.0005 46" stroke="#000000" stroke-width="3.99874" stroke-miterlimit="8" fill="none" fill-rule="evenodd"/><text font-family="Cambria Math,Cambria Math_MSFontService,sans-serif" font-weight="400" font-size="37" transform="translate(8.94794 281)">𝑺</text><text font-family="Cambria Math,Cambria Math_MSFontService,sans-serif" font-weight="400" font-size="27" transform="translate(30.1079 289)">𝟏</text><rect x="104" y="361" width="321" height="122" fill="#B4C7E7"/><text font-family="Cambria Math,Cambria Math_MSFontService,sans-serif" font-weight="400" font-size="43" transform="translate(211.463 435)">𝑸</text><text font-family="Cambria Math,Cambria Math_MSFontService,sans-serif" font-weight="400" font-size="31" transform="translate(242.787 443)">𝟎</text><text font-family="Cambria Math,Cambria Math_MSFontService,sans-serif" font-weight="400" font-size="31" transform="translate(261.448 443)">(</text><text font-family="Cambria Math,Cambria Math_MSFontService,sans-serif" font-weight="400" font-size="31" transform="translate(274.444 443)">𝟏</text><text font-family="Cambria Math,Cambria Math_MSFontService,sans-serif" font-weight="400" font-size="31" transform="translate(293.104 443)">)</text><rect x="104" y="46" width="321" height="315" fill="#2F5597"/><text fill="#FFFFFF" font-family="Cambria Math,Cambria Math_MSFontService,sans-serif" font-weight="400" font-size="43" transform="translate(198.134 216)">𝑺</text><text fill="#FFFFFF" font-family="Cambria Math,Cambria Math_MSFontService,sans-serif" font-weight="400" font-size="31" transform="translate(222.293 225)">𝒐𝒃𝒔</text><text fill="#FFFFFF" font-family="Cambria Math,Cambria Math_MSFontService,sans-serif" font-weight="400" font-size="31" transform="translate(274.777 225)">(</text><text fill="#FFFFFF" font-family="Cambria Math,Cambria Math_MSFontService,sans-serif" font-weight="400" font-size="31" transform="translate(287.773 225)">𝟏</text><text fill="#FFFFFF" font-family="Cambria Math,Cambria Math_MSFontService,sans-serif" font-weight="400" font-size="31" transform="translate(306.433 225)">)</text><path d="M104 361 425.505 361" stroke="#000000" stroke-width="5.99811" stroke-linejoin="round" stroke-miterlimit="10" stroke-dasharray="23.9924 17.9943" fill="none" fill-rule="evenodd"/></g></svg>