<svg width="529" height="529" xmlns="http://www.w3.org/2000/svg" xmlns:xlink="http://www.w3.org/1999/xlink" overflow="hidden"><defs><clipPath id="clip0"><rect x="0" y="0" width="529" height="529"/></clipPath></defs><g clip-path="url(#clip0)"><rect x="0" y="0" width="529" height="529" fill="#FFFFFF"/><rect x="91" y="352" width="174" height="46" fill="#B4C7E7"/><text font-family="Cambria Math,Cambria Math_MSFontService,sans-serif" font-weight="400" font-size="19" transform="translate(101.074 381)">𝑸</text><text font-family="Cambria Math,Cambria Math_MSFontService,sans-serif" font-weight="400" font-size="14" transform="translate(114.736 385)">𝟎</text><text font-family="Cambria Math,Cambria Math_MSFontService,sans-serif" font-weight="400" font-size="14" transform="translate(122.9 385)">(</text><text font-family="Cambria Math,Cambria Math_MSFontService,sans-serif" font-weight="400" font-size="14" transform="translate(128.565 385)">𝟏</text><text font-family="Cambria Math,Cambria Math_MSFontService,sans-serif" font-weight="400" font-size="14" transform="translate(136.729 385)">)</text><text font-family="Cambria Math,Cambria Math_MSFontService,sans-serif" font-weight="400" font-size="19" transform="translate(147.312 381)">−</text><text font-family="Cambria Math,Cambria Math_MSFontService,sans-serif" font-weight="400" font-size="19" transform="translate(165.453 381)">𝑸</text><text font-family="Cambria Math,Cambria Math_MSFontService,sans-serif" font-weight="400" font-size="14" transform="translate(179.116 385)">+</text><text font-family="Cambria Math,Cambria Math_MSFontService,sans-serif" font-weight="400" font-size="14" transform="translate(188.946 385)">𝟎</text><text font-family="Cambria Math,Cambria Math_MSFontService,sans-serif" font-weight="400" font-size="19" transform="translate(202.028 381)">−</text><text font-family="Cambria Math,Cambria Math_MSFontService,sans-serif" font-weight="400" font-size="19" transform="translate(220.169 381)">𝑸</text><text font-family="Cambria Math,Cambria Math_MSFontService,sans-serif" font-weight="400" font-size="14" transform="translate(233.832 385)">𝟎𝟎</text><path d="M445 403C449.971 403 454 408.084 454 414.355L454 452.646C454 458.917 458.029 464.001 463 464.001 458.029 464.001 454 469.085 454 475.357L454 513.645C454 519.916 449.97 525 445 525" stroke="#000000" stroke-width="1.99937" stroke-miterlimit="8" fill="none" fill-rule="evenodd"/><text font-family="Cambria Math,Cambria Math_MSFontService,sans-serif" font-weight="400" font-size="21" transform="matrix(6.12323e-17 1 -1 6.12323e-17 469.259 428)">𝑺</text><text font-family="Cambria Math,Cambria Math_MSFontService,sans-serif" font-weight="400" font-size="15" transform="matrix(6.12323e-17 1 -1 6.12323e-17 464.907 440)">𝟐</text><text font-family="Cambria Math,Cambria Math_MSFontService,sans-serif" font-weight="400" font-size="21" transform="matrix(6.12323e-17 1 -1 6.12323e-17 469.259 455)">−</text><text font-family="Cambria Math,Cambria Math_MSFontService,sans-serif" font-weight="400" font-size="21" transform="matrix(6.12323e-17 1 -1 6.12323e-17 469.259 476)">𝑺</text><text font-family="Cambria Math,Cambria Math_MSFontService,sans-serif" font-weight="400" font-size="15" transform="matrix(6.12323e-17 1 -1 6.12323e-17 464.907 488)">𝟏𝟐</text><path d="M83 288C78.3056 288 74.5 283.199 74.5 277.276L74.5 175.722C74.5 169.799 70.6944 164.998 66 164.998 70.6944 164.998 74.5 160.196 74.5 154.273L74.5 52.7243C74.5 46.8014 78.3056 42 83 42" stroke="#000000" stroke-width="1.99937" stroke-miterlimit="8" fill="none" fill-rule="evenodd"/><text font-family="Cambria Math,Cambria Math_MSFontService,sans-serif" font-weight="400" font-size="21" transform="matrix(6.12323e-17 1 -1 6.12323e-17 46.9374 149)">𝑺</text><text font-family="Cambria Math,Cambria Math_MSFontService,sans-serif" font-weight="400" font-size="15" transform="matrix(6.12323e-17 1 -1 6.12323e-17 42.5855 161)">𝟏𝟐</text><path d="M83 395C78.3055 395 74.4999 390.198 74.4999 384.275L74.5 352.723C74.5 346.8 70.6944 341.999 66 341.999 70.6944 341.999 74.5 337.197 74.5 331.274L74.5 299.724C74.5 293.801 78.3057 289 83.0001 289" stroke="#000000" stroke-width="1.99937" stroke-miterlimit="8" fill="none" fill-rule="evenodd"/><text font-family="Cambria Math,Cambria Math_MSFontService,sans-serif" font-weight="400" font-size="21" transform="matrix(6.12323e-17 1 -1 6.12323e-17 45.6886 305)">𝑺</text><text font-family="Cambria Math,Cambria Math_MSFontService,sans-serif" font-weight="400" font-size="15" transform="matrix(6.12323e-17 1 -1 6.12323e-17 41.3366 317)">𝟏</text><text font-family="Cambria Math,Cambria Math_MSFontService,sans-serif" font-weight="400" font-size="21" transform="matrix(6.12323e-17 1 -1 6.12323e-17 45.6886 332)">−</text><text font-family="Cambria Math,Cambria Math_MSFontService,sans-serif" font-weight="400" font-size="21" transform="matrix(6.12323e-17 1 -1 6.12323e-17 45.6886 353)">𝑺</text><text font-family="Cambria Math,Cambria Math_MSFontService,sans-serif" font-weight="400" font-size="15" transform="matrix(6.12323e-17 1 -1 6.12323e-17 41.3366 365)">𝟏𝟐</text><rect x="266" y="180" width="174" height="52" fill="#FFD966"/><text font-family="Cambria Math,Cambria Math_MSFontService,sans-serif" font-weight="400" font-size="24" transform="translate(329.23 215)">𝑸</text><text font-family="Cambria Math,Cambria Math_MSFontService,sans-serif" font-weight="400" font-size="18" transform="translate(346.725 220)">𝟎</text><text font-family="Cambria Math,Cambria Math_MSFontService,sans-serif" font-weight="400" font-size="18" transform="translate(357.221 220)">+</text><rect x="92" y="123" width="174" height="59" fill="#FFD966"/><text font-family="Cambria Math,Cambria Math_MSFontService,sans-serif" font-weight="400" font-size="24" transform="translate(155.426 161)">𝑸</text><text font-family="Cambria Math,Cambria Math_MSFontService,sans-serif" font-weight="400" font-size="18" transform="translate(172.921 166)">+</text><text font-family="Cambria Math,Cambria Math_MSFontService,sans-serif" font-weight="400" font-size="18" transform="translate(185.584 166)">𝟎</text><path d="M266 127 266 228.448" stroke="#000000" stroke-width="1.99937" stroke-linejoin="round" stroke-miterlimit="10" stroke-dasharray="7.99748 5.99811" fill="none" fill-rule="evenodd"/><path d="M92 181 439.607 181" stroke="#000000" stroke-width="1.99937" stroke-linejoin="round" stroke-miterlimit="10" stroke-dasharray="7.99748 5.99811" fill="none" fill-rule="evenodd"/><rect x="91" y="289" width="174" height="63" fill="#2F5597"/><text fill="#FFFFFF" font-family="Cambria Math,Cambria Math_MSFontService,sans-serif" font-weight="400" font-size="24" transform="translate(106.342 328)">𝑺</text><text fill="#FFFFFF" font-family="Cambria Math,Cambria Math_MSFontService,sans-serif" font-weight="400" font-size="18" transform="translate(120.004 333)">𝒐𝒃𝒔</text><path d="M168.001 319.688C169.712 320.139 171.026 321.113 171.943 322.61 172.86 324.107 173.318 325.913 173.318 328.028 173.318 330.15 172.861 331.956 171.947 333.447 171.033 334.938 169.718 335.909 168.001 336.361L167.79 335.684C169.143 335.233 170.15 334.342 170.809 333.012 171.468 331.682 171.798 329.991 171.798 327.941 171.798 325.96 171.469 324.315 170.813 323.006 170.157 321.696 169.14 320.816 167.763 320.364ZM156.561 319.688 156.798 320.364C155.427 320.816 154.412 321.696 153.753 323.006 153.094 324.315 152.764 325.96 152.764 327.941 152.764 329.991 153.094 331.682 153.753 333.012 154.412 334.342 155.419 335.233 156.772 335.684L156.561 336.361C154.844 335.909 153.529 334.938 152.615 333.447 151.701 331.956 151.244 330.15 151.244 328.028 151.244 325.913 151.702 324.107 152.619 322.61 153.536 321.113 154.85 320.139 156.561 319.688Z" fill="#FFFFFF" fill-rule="evenodd"/><text fill="#FFFFFF" font-family="Cambria Math,Cambria Math_MSFontService,sans-serif" font-weight="400" font-size="18" transform="translate(156.933 333)">𝟏</text><text fill="#FFFFFF" font-family="Cambria Math,Cambria Math_MSFontService,sans-serif" font-weight="400" font-size="24" transform="translate(181.025 328)">−</text><text fill="#FFFFFF" font-family="Cambria Math,Cambria Math_MSFontService,sans-serif" font-weight="400" font-size="24" transform="translate(204.351 328)">𝑫</text><text fill="#FFFFFF" font-family="Cambria Math,Cambria Math_MSFontService,sans-serif" font-weight="400" font-size="18" transform="translate(222.345 333)">𝟏𝟐</text><path d="M91 352 264.803 352" stroke="#000000" stroke-width="1.99937" stroke-linejoin="round" stroke-miterlimit="10" stroke-dasharray="7.99748 5.99811" fill="none" fill-rule="evenodd"/><rect x="91" y="232" width="348" height="56" fill="#FFF2CC"/><text font-family="Cambria Math,Cambria Math_MSFontService,sans-serif" font-weight="400" font-size="24" transform="translate(242.498 268)">𝑸</text><text font-family="Cambria Math,Cambria Math_MSFontService,sans-serif" font-weight="400" font-size="18" transform="translate(259.993 273)">𝟎𝟎</text><path d="M91 288 438.607 288" stroke="#000000" stroke-width="1.99937" stroke-linejoin="round" stroke-miterlimit="10" fill="none" fill-rule="evenodd"/><rect x="265" y="468" width="174" height="57" fill="#C5E0B4"/><text font-family="Cambria Math,Cambria Math_MSFontService,sans-serif" font-weight="400" font-size="19" transform="translate(274.877 502)">𝑸</text><text font-family="Cambria Math,Cambria Math_MSFontService,sans-serif" font-weight="400" font-size="14" transform="translate(288.539 506)">𝟎</text><text font-family="Cambria Math,Cambria Math_MSFontService,sans-serif" font-weight="400" font-size="14" transform="translate(296.704 506)">(</text><text font-family="Cambria Math,Cambria Math_MSFontService,sans-serif" font-weight="400" font-size="14" transform="translate(302.368 506)">𝟐</text><text font-family="Cambria Math,Cambria Math_MSFontService,sans-serif" font-weight="400" font-size="14" transform="translate(310.533 506)">)</text><text font-family="Cambria Math,Cambria Math_MSFontService,sans-serif" font-weight="400" font-size="19" transform="translate(321.116 502)">−</text><text font-family="Cambria Math,Cambria Math_MSFontService,sans-serif" font-weight="400" font-size="19" transform="translate(339.257 502)">𝑸</text><text font-family="Cambria Math,Cambria Math_MSFontService,sans-serif" font-weight="400" font-size="14" transform="translate(352.919 506)">𝟎</text><text font-family="Cambria Math,Cambria Math_MSFontService,sans-serif" font-weight="400" font-size="14" transform="translate(361.083 506)">+</text><text font-family="Cambria Math,Cambria Math_MSFontService,sans-serif" font-weight="400" font-size="19" transform="translate(375.832 502)">−</text><text font-family="Cambria Math,Cambria Math_MSFontService,sans-serif" font-weight="400" font-size="19" transform="translate(393.973 502)">𝑸</text><text font-family="Cambria Math,Cambria Math_MSFontService,sans-serif" font-weight="400" font-size="14" transform="translate(407.635 506)">𝟎𝟎</text><rect x="265" y="398" width="174" height="70" fill="#548235"/><text fill="#FFFFFF" font-family="Cambria Math,Cambria Math_MSFontService,sans-serif" font-weight="400" font-size="24" transform="translate(280.145 440)">𝑺</text><text fill="#FFFFFF" font-family="Cambria Math,Cambria Math_MSFontService,sans-serif" font-weight="400" font-size="18" transform="translate(293.808 445)">𝒐𝒃𝒔</text><path d="M341.804 431.932C343.515 432.383 344.829 433.357 345.746 434.854 346.663 436.351 347.122 438.157 347.122 440.272 347.122 442.393 346.664 444.2 345.75 445.691 344.836 447.182 343.521 448.153 341.804 448.604L341.593 447.928C342.947 447.476 343.953 446.586 344.612 445.256 345.271 443.926 345.601 442.235 345.601 440.184 345.601 438.204 345.273 436.559 344.617 435.249 343.96 433.94 342.944 433.059 341.567 432.608ZM330.365 431.932 330.602 432.608C329.231 433.059 328.216 433.94 327.556 435.249 326.897 436.559 326.568 438.204 326.568 440.184 326.568 442.235 326.897 443.926 327.556 445.256 328.216 446.586 329.222 447.476 330.575 447.928L330.365 448.604C328.648 448.153 327.332 447.182 326.418 445.691 325.504 444.2 325.047 442.393 325.047 440.272 325.047 438.157 325.506 436.351 326.423 434.854 327.34 433.357 328.654 432.383 330.365 431.932Z" fill="#FFFFFF" fill-rule="evenodd"/><text fill="#FFFFFF" font-family="Cambria Math,Cambria Math_MSFontService,sans-serif" font-weight="400" font-size="18" transform="translate(330.736 445)">𝟐</text><text fill="#FFFFFF" font-family="Cambria Math,Cambria Math_MSFontService,sans-serif" font-weight="400" font-size="24" transform="translate(354.829 440)">−</text><text fill="#FFFFFF" font-family="Cambria Math,Cambria Math_MSFontService,sans-serif" font-weight="400" font-size="24" transform="translate(378.155 440)">𝑫</text><text fill="#FFFFFF" font-family="Cambria Math,Cambria Math_MSFontService,sans-serif" font-weight="400" font-size="18" transform="translate(396.149 445)">𝟏𝟐</text><path d="M266 468 439.803 468" stroke="#000000" stroke-width="1.99937" stroke-linejoin="round" stroke-miterlimit="10" stroke-dasharray="7.99748 5.99811" fill="none" fill-rule="evenodd"/><rect x="92" y="40" width="348" height="83" fill="#FFD966"/><text font-family="Cambria Math,Cambria Math_MSFontService,sans-serif" font-weight="400" font-size="37" transform="translate(230.555 94)">𝑫</text><text font-family="Cambria Math,Cambria Math_MSFontService,sans-serif" font-weight="400" font-size="27" transform="translate(258.547 102)">𝟏𝟐</text><path d="M92 123 439.607 123" stroke="#000000" stroke-width="1.99937" stroke-linejoin="round" stroke-miterlimit="10" stroke-dasharray="7.99748 5.99811" fill="none" fill-rule="evenodd"/><rect x="92.5" y="6.5" width="174" height="34" stroke="#000000" stroke-width="1.33291" stroke-miterlimit="8" fill="#FFFFFF"/><text font-family="Sitka Text Semibold,Sitka Text Semibold_MSFontService,sans-serif" font-weight="600" font-size="19" transform="translate(119.684 30)">Community 1</text><rect x="265.5" y="6.5" width="174" height="34" stroke="#000000" stroke-width="1.33291" stroke-miterlimit="8" fill="#FFFFFF"/><text font-family="Sitka Text Semibold,Sitka Text Semibold_MSFontService,sans-serif" font-weight="600" font-size="19" transform="translate(291.492 30)">Community 2</text><path d="M91 232 438.607 232" stroke="#000000" stroke-width="1.99937" stroke-linejoin="round" stroke-miterlimit="10" stroke-dasharray="7.99748 5.99811" fill="none" fill-rule="evenodd"/></g></svg>