<svg width="529" height="529" xmlns="http://www.w3.org/2000/svg" xmlns:xlink="http://www.w3.org/1999/xlink" overflow="hidden"><defs><clipPath id="clip0"><rect x="0" y="0" width="529" height="529"/></clipPath></defs><g clip-path="url(#clip0)"><rect x="0" y="0" width="529" height="529" fill="#FFFFFF"/><rect x="91" y="352" width="174" height="46" fill="#B4C7E7"/><text font-family="Cambria Math,Cambria Math_MSFontService,sans-serif" font-weight="400" font-size="19" transform="translate(128.432 381)">𝑸</text><text font-family="Cambria Math,Cambria Math_MSFontService,sans-serif" font-weight="400" font-size="14" transform="translate(142.094 385)">𝟎</text><text font-family="Cambria Math,Cambria Math_MSFontService,sans-serif" font-weight="400" font-size="14" transform="translate(150.258 385)">(</text><text font-family="Cambria Math,Cambria Math_MSFontService,sans-serif" font-weight="400" font-size="14" transform="translate(155.923 385)">𝟏</text><text font-family="Cambria Math,Cambria Math_MSFontService,sans-serif" font-weight="400" font-size="14" transform="translate(164.087 385)">)</text><text font-family="Cambria Math,Cambria Math_MSFontService,sans-serif" font-weight="400" font-size="19" transform="translate(174.67 381)">−</text><text font-family="Cambria Math,Cambria Math_MSFontService,sans-serif" font-weight="400" font-size="19" transform="translate(192.811 381)">𝑸</text><text font-family="Cambria Math,Cambria Math_MSFontService,sans-serif" font-weight="400" font-size="14" transform="translate(206.474 385)">𝟎𝟎</text><path d="M445 403C449.971 403 454 408.084 454 414.355L454 452.646C454 458.917 458.029 464.001 463 464.001 458.029 464.001 454 469.085 454 475.357L454 513.645C454 519.916 449.97 525 445 525" stroke="#000000" stroke-width="1.99937" stroke-miterlimit="8" fill="none" fill-rule="evenodd"/><text font-family="Cambria Math,Cambria Math_MSFontService,sans-serif" font-weight="400" font-size="21" transform="matrix(6.12323e-17 1 -1 6.12323e-17 469.259 428)">𝑺</text><text font-family="Cambria Math,Cambria Math_MSFontService,sans-serif" font-weight="400" font-size="15" transform="matrix(6.12323e-17 1 -1 6.12323e-17 464.907 440)">𝟐</text><text font-family="Cambria Math,Cambria Math_MSFontService,sans-serif" font-weight="400" font-size="21" transform="matrix(6.12323e-17 1 -1 6.12323e-17 469.259 455)">−</text><text font-family="Cambria Math,Cambria Math_MSFontService,sans-serif" font-weight="400" font-size="21" transform="matrix(6.12323e-17 1 -1 6.12323e-17 469.259 476)">𝑺</text><text font-family="Cambria Math,Cambria Math_MSFontService,sans-serif" font-weight="400" font-size="15" transform="matrix(6.12323e-17 1 -1 6.12323e-17 464.907 488)">𝟏𝟐</text><path d="M83 288C78.3056 288 74.5 283.199 74.5 277.276L74.5 175.722C74.5 169.799 70.6944 164.998 66 164.998 70.6944 164.998 74.5 160.196 74.5 154.273L74.5 52.7243C74.5 46.8014 78.3056 42 83 42" stroke="#000000" stroke-width="1.99937" stroke-miterlimit="8" fill="none" fill-rule="evenodd"/><text font-family="Cambria Math,Cambria Math_MSFontService,sans-serif" font-weight="400" font-size="21" transform="matrix(6.12323e-17 1 -1 6.12323e-17 46.9374 149)">𝑺</text><text font-family="Cambria Math,Cambria Math_MSFontService,sans-serif" font-weight="400" font-size="15" transform="matrix(6.12323e-17 1 -1 6.12323e-17 42.5855 161)">𝟏𝟐</text><path d="M83 395C78.3055 395 74.4999 390.198 74.4999 384.275L74.5 352.723C74.5 346.8 70.6944 341.999 66 341.999 70.6944 341.999 74.5 337.197 74.5 331.274L74.5 299.724C74.5 293.801 78.3057 289 83.0001 289" stroke="#000000" stroke-width="1.99937" stroke-miterlimit="8" fill="none" fill-rule="evenodd"/><text font-family="Cambria Math,Cambria Math_MSFontService,sans-serif" font-weight="400" font-size="21" transform="matrix(6.12323e-17 1 -1 6.12323e-17 45.6886 305)">𝑺</text><text font-family="Cambria Math,Cambria Math_MSFontService,sans-serif" font-weight="400" font-size="15" transform="matrix(6.12323e-17 1 -1 6.12323e-17 41.3366 317)">𝟏</text><text font-family="Cambria Math,Cambria Math_MSFontService,sans-serif" font-weight="400" font-size="21" transform="matrix(6.12323e-17 1 -1 6.12323e-17 45.6886 332)">−</text><text font-family="Cambria Math,Cambria Math_MSFontService,sans-serif" font-weight="400" font-size="21" transform="matrix(6.12323e-17 1 -1 6.12323e-17 45.6886 353)">𝑺</text><text font-family="Cambria Math,Cambria Math_MSFontService,sans-serif" font-weight="400" font-size="15" transform="matrix(6.12323e-17 1 -1 6.12323e-17 41.3366 365)">𝟏𝟐</text><rect x="266" y="180" width="174" height="52" fill="#FFD966"/><text font-family="Cambria Math,Cambria Math_MSFontService,sans-serif" font-weight="400" font-size="24" transform="translate(329.23 215)">𝑸</text><text font-family="Cambria Math,Cambria Math_MSFontService,sans-serif" font-weight="400" font-size="18" transform="translate(346.725 220)">𝟎</text><text font-family="Cambria Math,Cambria Math_MSFontService,sans-serif" font-weight="400" font-size="18" transform="translate(357.221 220)">+</text><rect x="92" y="123" width="174" height="59" fill="#FFD966"/><text font-family="Cambria Math,Cambria Math_MSFontService,sans-serif" font-weight="400" font-size="24" transform="translate(155.426 161)">𝑸</text><text font-family="Cambria Math,Cambria Math_MSFontService,sans-serif" font-weight="400" font-size="18" transform="translate(172.921 166)">+</text><text font-family="Cambria Math,Cambria Math_MSFontService,sans-serif" font-weight="400" font-size="18" transform="translate(185.584 166)">𝟎</text><path d="M266 127 266 228.448" stroke="#000000" stroke-width="1.99937" stroke-linejoin="round" stroke-miterlimit="10" stroke-dasharray="7.99748 5.99811" fill="none" fill-rule="evenodd"/><path d="M92 181 439.607 181" stroke="#000000" stroke-width="1.99937" stroke-linejoin="round" stroke-miterlimit="10" stroke-dasharray="7.99748 5.99811" fill="none" fill-rule="evenodd"/><rect x="91" y="289" width="174" height="63" fill="#2F5597"/><text fill="#FFFFFF" font-family="Cambria Math,Cambria Math_MSFontService,sans-serif" font-weight="400" font-size="17" transform="translate(104.922 326)">𝑺</text><text fill="#FFFFFF" font-family="Cambria Math,Cambria Math_MSFontService,sans-serif" font-weight="400" font-size="12" transform="translate(114.753 329)">𝒐𝒃𝒔</text><path d="M149.21 320.052C150.35 320.353 151.226 321.002 151.837 322.001 152.449 322.999 152.754 324.203 152.754 325.613 152.754 327.027 152.45 328.231 151.84 329.225 151.231 330.219 150.354 330.867 149.21 331.168L149.069 330.716C149.971 330.416 150.642 329.822 151.082 328.935 151.521 328.048 151.741 326.921 151.741 325.554 151.741 324.234 151.522 323.137 151.085 322.264 150.647 321.391 149.969 320.804 149.051 320.503ZM140.679 320.052 140.837 320.503C139.923 320.804 139.246 321.391 138.807 322.264 138.367 323.137 138.148 324.234 138.148 325.554 138.148 326.921 138.367 328.048 138.807 328.935 139.246 329.822 139.917 330.416 140.82 330.716L140.679 331.168C139.534 330.867 138.657 330.219 138.048 329.225 137.439 328.231 137.134 327.027 137.134 325.613 137.134 324.203 137.44 322.999 138.051 322.001 138.662 321.002 139.538 320.353 140.679 320.052Z" fill="#FFFFFF" fill-rule="evenodd"/><text fill="#FFFFFF" font-family="Cambria Math,Cambria Math_MSFontService,sans-serif" font-weight="400" font-size="12" transform="translate(141.331 329)">𝟏</text><text fill="#FFFFFF" font-family="Cambria Math,Cambria Math_MSFontService,sans-serif" font-weight="400" font-size="17" transform="translate(158.652 326)">−</text><text fill="#FFFFFF" font-family="Cambria Math,Cambria Math_MSFontService,sans-serif" font-weight="400" font-size="17" transform="translate(175.5 326)">𝑫</text><text fill="#FFFFFF" font-family="Cambria Math,Cambria Math_MSFontService,sans-serif" font-weight="400" font-size="12" transform="translate(188.496 329)">𝟏𝟐</text><text fill="#FFFFFF" font-family="Cambria Math,Cambria Math_MSFontService,sans-serif" font-weight="400" font-size="17" transform="translate(208.21 326)">−</text><text fill="#FFFFFF" font-family="Cambria Math,Cambria Math_MSFontService,sans-serif" font-weight="400" font-size="17" transform="translate(221.206 326)">𝑸</text><text fill="#FFFFFF" font-family="Cambria Math,Cambria Math_MSFontService,sans-serif" font-weight="400" font-size="12" transform="translate(233.869 329)">+</text><text fill="#FFFFFF" font-family="Cambria Math,Cambria Math_MSFontService,sans-serif" font-weight="400" font-size="12" transform="translate(243.032 329)">𝟎</text><path d="M91 352 264.803 352" stroke="#000000" stroke-width="1.99937" stroke-linejoin="round" stroke-miterlimit="10" stroke-dasharray="7.99748 5.99811" fill="none" fill-rule="evenodd"/><rect x="91" y="232" width="348" height="56" fill="#FFF2CC"/><text font-family="Cambria Math,Cambria Math_MSFontService,sans-serif" font-weight="400" font-size="24" transform="translate(242.498 268)">𝑸</text><text font-family="Cambria Math,Cambria Math_MSFontService,sans-serif" font-weight="400" font-size="18" transform="translate(259.993 273)">𝟎𝟎</text><path d="M91 288 438.607 288" stroke="#000000" stroke-width="1.99937" stroke-linejoin="round" stroke-miterlimit="10" fill="none" fill-rule="evenodd"/><rect x="265" y="468" width="174" height="57" fill="#C5E0B4"/><text font-family="Cambria Math,Cambria Math_MSFontService,sans-serif" font-weight="400" font-size="19" transform="translate(302.235 502)">𝑸</text><text font-family="Cambria Math,Cambria Math_MSFontService,sans-serif" font-weight="400" font-size="14" transform="translate(315.898 506)">𝟎</text><text font-family="Cambria Math,Cambria Math_MSFontService,sans-serif" font-weight="400" font-size="14" transform="translate(324.062 506)">(</text><text font-family="Cambria Math,Cambria Math_MSFontService,sans-serif" font-weight="400" font-size="14" transform="translate(329.727 506)">𝟐</text><text font-family="Cambria Math,Cambria Math_MSFontService,sans-serif" font-weight="400" font-size="14" transform="translate(337.891 506)">)</text><text font-family="Cambria Math,Cambria Math_MSFontService,sans-serif" font-weight="400" font-size="19" transform="translate(348.474 502)">−</text><text font-family="Cambria Math,Cambria Math_MSFontService,sans-serif" font-weight="400" font-size="19" transform="translate(366.615 502)">𝑸</text><text font-family="Cambria Math,Cambria Math_MSFontService,sans-serif" font-weight="400" font-size="14" transform="translate(380.277 506)">𝟎𝟎</text><rect x="265" y="398" width="174" height="70" fill="#548235"/><text fill="#FFFFFF" font-family="Cambria Math,Cambria Math_MSFontService,sans-serif" font-weight="400" font-size="17" transform="translate(278.726 438)">𝑺</text><text fill="#FFFFFF" font-family="Cambria Math,Cambria Math_MSFontService,sans-serif" font-weight="400" font-size="12" transform="translate(288.556 441)">𝒐𝒃𝒔</text><path d="M323.013 432.296C324.154 432.597 325.03 433.246 325.641 434.244 326.252 435.242 326.558 436.447 326.558 437.857 326.558 439.271 326.253 440.475 325.644 441.469 325.034 442.463 324.157 443.111 323.013 443.411L322.872 442.96C323.775 442.659 324.446 442.066 324.885 441.179 325.324 440.292 325.544 439.165 325.544 437.798 325.544 436.478 325.325 435.381 324.888 434.508 324.45 433.635 323.773 433.048 322.855 432.747ZM314.482 432.296 314.641 432.747C313.727 433.048 313.05 433.635 312.61 434.508 312.171 435.381 311.951 436.478 311.951 437.798 311.951 439.165 312.171 440.292 312.61 441.179 313.05 442.066 313.721 442.659 314.623 442.96L314.482 443.411C313.338 443.111 312.461 442.463 311.852 441.469 311.242 440.475 310.937 439.271 310.937 437.857 310.937 436.447 311.243 435.242 311.854 434.244 312.466 433.246 313.342 432.597 314.482 432.296Z" fill="#FFFFFF" fill-rule="evenodd"/><text fill="#FFFFFF" font-family="Cambria Math,Cambria Math_MSFontService,sans-serif" font-weight="400" font-size="12" transform="translate(315.134 441)">𝟐</text><text fill="#FFFFFF" font-family="Cambria Math,Cambria Math_MSFontService,sans-serif" font-weight="400" font-size="17" transform="translate(332.456 438)">−</text><text fill="#FFFFFF" font-family="Cambria Math,Cambria Math_MSFontService,sans-serif" font-weight="400" font-size="17" transform="translate(349.304 438)">𝑫</text><text fill="#FFFFFF" font-family="Cambria Math,Cambria Math_MSFontService,sans-serif" font-weight="400" font-size="12" transform="translate(362.3 441)">𝟏𝟐</text><text fill="#FFFFFF" font-family="Cambria Math,Cambria Math_MSFontService,sans-serif" font-weight="400" font-size="17" transform="translate(382.013 438)">−</text><text fill="#FFFFFF" font-family="Cambria Math,Cambria Math_MSFontService,sans-serif" font-weight="400" font-size="17" transform="translate(395.009 438)">𝑸</text><text fill="#FFFFFF" font-family="Cambria Math,Cambria Math_MSFontService,sans-serif" font-weight="400" font-size="12" transform="translate(407.672 441)">𝟎</text><text fill="#FFFFFF" font-family="Cambria Math,Cambria Math_MSFontService,sans-serif" font-weight="400" font-size="12" transform="translate(415.17 441)">+</text><path d="M266 468 439.803 468" stroke="#000000" stroke-width="1.99937" stroke-linejoin="round" stroke-miterlimit="10" stroke-dasharray="7.99748 5.99811" fill="none" fill-rule="evenodd"/><rect x="92" y="40" width="348" height="83" fill="#FFD966"/><text font-family="Cambria Math,Cambria Math_MSFontService,sans-serif" font-weight="400" font-size="37" transform="translate(230.555 94)">𝑫</text><text font-family="Cambria Math,Cambria Math_MSFontService,sans-serif" font-weight="400" font-size="27" transform="translate(258.547 102)">𝟏𝟐</text><path d="M92 123 439.607 123" stroke="#000000" stroke-width="1.99937" stroke-linejoin="round" stroke-miterlimit="10" stroke-dasharray="7.99748 5.99811" fill="none" fill-rule="evenodd"/><rect x="92.5" y="6.5" width="174" height="34" stroke="#000000" stroke-width="1.33291" stroke-miterlimit="8" fill="#FFFFFF"/><text font-family="Sitka Text Semibold,Sitka Text Semibold_MSFontService,sans-serif" font-weight="600" font-size="19" transform="translate(119.601 29)">Community 1</text><text font-family="Sitka Text Semibold,Sitka Text Semibold_MSFontService,sans-serif" font-weight="600" font-size="19" transform="translate(238.397 29)"></text><rect x="265.5" y="6.5" width="174" height="34" stroke="#000000" stroke-width="1.33291" stroke-miterlimit="8" fill="#FFFFFF"/><text font-family="Sitka Text Semibold,Sitka Text Semibold_MSFontService,sans-serif" font-weight="600" font-size="19" transform="translate(291.409 29)">Community 2</text><text font-family="Sitka Text Semibold,Sitka Text Semibold_MSFontService,sans-serif" font-weight="600" font-size="19" transform="translate(412.371 29)"></text><path d="M91 232 438.607 232" stroke="#000000" stroke-width="1.99937" stroke-linejoin="round" stroke-miterlimit="10" stroke-dasharray="7.99748 5.99811" fill="none" fill-rule="evenodd"/></g></svg>